<svg xmlns="http://www.w3.org/2000/svg" viewBox="0 0 250.57 47.19"><defs><style>.cls-1{fill:#222221;}.cls-2{fill:#2d3884;}.cls-3{fill:#681b67;}</style></defs><g id="Ebene_2" data-name="Ebene 2"><g id="Ebene_1-2" data-name="Ebene 1"><g id="Gesamtwerk"><path class="cls-1" d="M70.28,39.28v1.1h.84v5.45a1.25,1.25,0,0,1-.73.26c-.72,0-1-.37-1-1.35v-11c0-1,.23-1.35.86-1.35s.87.35.87,1.35v1.66H72.5V33.83c0-1.73-.73-2.57-2.25-2.57S68,32.1,68,33.83v10.9c0,1.66.75,2.46,2.31,2.46a4.27,4.27,0,0,0,2.18-.59V39.28Z"/><polygon class="cls-1" points="82.97 31.42 79.28 31.42 79.28 47.02 83.11 47.02 83.11 45.93 80.66 45.93 80.66 39.42 82.83 39.42 82.83 38.32 80.66 38.32 80.66 32.52 82.97 32.52 82.97 31.42"/><polygon class="cls-1" points="97.17 47.02 97.17 31.42 94.97 31.42 93.31 45.46 91.81 31.42 89.57 31.42 89.57 47.02 90.86 47.02 90.86 33.13 92.38 47.02 94.18 47.02 95.88 33.13 95.88 47.02 97.17 47.02"/><polygon class="cls-1" points="107.64 31.42 103.95 31.42 103.95 47.02 107.78 47.02 107.78 45.93 105.33 45.93 105.33 39.42 107.5 39.42 107.5 38.32 105.33 38.32 105.33 32.52 107.64 32.52 107.64 31.42"/><polygon class="cls-1" points="115.62 47.02 115.62 31.42 114.24 31.42 114.24 47.02 115.62 47.02"/><polygon class="cls-1" points="127.54 47.02 127.54 31.42 126.25 31.42 126.25 43.82 124.38 31.42 122.42 31.42 122.42 47.02 123.7 47.02 123.7 34.09 125.67 47.02 127.54 47.02"/><path class="cls-1" d="M138.34,35.37V33.83c0-1.75-.7-2.57-2.15-2.57s-2.13.82-2.13,2.57V35a4.75,4.75,0,0,0,1,3l1.1,1.78a5.11,5.11,0,0,1,1.1,2.81v2.15c0,1-.24,1.36-.89,1.36s-.89-.35-.89-1.36v-2h-1.38v1.87c0,1.71.73,2.55,2.27,2.55s2.27-.84,2.27-2.55V42.58c0-1.1-.1-1.4-1-2.93l-1.47-2.45a3.7,3.7,0,0,1-.68-2.2V33.71c0-1,.19-1.35.75-1.35s.77.35.77,1.35v1.66Z"/><path class="cls-1" d="M149.26,42.77h-1.37v2c0,1-.22,1.36-.78,1.36s-.74-.35-.74-1.36v-11c0-1,.21-1.35.74-1.35s.78.35.78,1.35v1.66h1.37V33.83c0-1.73-.69-2.57-2.14-2.57S145,32.1,145,33.83V44.64c0,1.71.7,2.55,2.13,2.55s2.14-.84,2.14-2.55V42.77Z"/><polygon class="cls-1" points="160.44 47.02 160.44 31.42 159.06 31.42 159.06 38.44 157.28 38.44 157.28 31.42 155.91 31.42 155.91 47.02 157.28 47.02 157.28 39.54 159.06 39.54 159.06 47.02 160.44 47.02"/><path class="cls-1" d="M170.21,41.62h-1.63l.75-8.38.88,8.38Zm.14,1.1.54,4.3h1.36l-2-15.6h-1.91L166.71,47H168l.44-4.3Z"/><polygon class="cls-1" points="179.94 47.02 179.94 39.45 182.04 39.45 182.04 38.35 179.94 38.35 179.94 32.52 182.15 32.52 182.15 31.42 178.56 31.42 178.56 47.02 179.94 47.02"/><polygon class="cls-1" points="190.62 47.02 190.62 32.52 192.21 32.52 192.21 31.42 187.63 31.42 187.63 32.52 189.24 32.52 189.24 47.02 190.62 47.02"/><path class="cls-1" d="M202.66,35.37V33.83c0-1.75-.7-2.57-2.14-2.57s-2.13.82-2.13,2.57V35a4.75,4.75,0,0,0,1,3l1.1,1.78a5.11,5.11,0,0,1,1.1,2.81v2.15c0,1-.24,1.36-.89,1.36s-.89-.35-.89-1.36v-2h-1.38v1.87c0,1.71.72,2.55,2.27,2.55s2.26-.84,2.26-2.55V42.58c0-1.1-.09-1.4-1-2.93l-1.47-2.45a3.7,3.7,0,0,1-.68-2.2V33.71c0-1,.19-1.35.75-1.35s.77.35.77,1.35v1.66h1.37Z"/><polygon class="cls-1" points="216.32 47.02 217.86 31.42 216.53 31.42 215.5 43.84 214.36 31.42 212.7 31.42 211.48 43.84 210.36 31.42 209.03 31.42 210.6 47.02 212.23 47.02 213.52 34.3 214.71 47.02 216.32 47.02"/><polygon class="cls-1" points="227.82 31.42 224.13 31.42 224.13 47.02 227.97 47.02 227.97 45.93 225.51 45.93 225.51 39.42 227.69 39.42 227.69 38.32 225.51 38.32 225.51 32.52 227.82 32.52 227.82 31.42"/><path class="cls-1" d="M235.8,38.27V32.52h1c.59,0,.79.23.79.94v3.88c0,.68-.2.94-.79.94ZM239,47v-6.5c0-1-.26-1.47-1.08-1.82.77-.38,1-.7,1-1.43v-3.6c0-1.73-.51-2.25-2.27-2.25h-2.24V47h1.38V39.38h1c.58,0,.82.25.82.91V47Z"/><path class="cls-1" d="M247.16,47V31.42h-1.38V47Zm3.41,0-2-8.86,1.77-6.74H249l-1.75,6.88,2,8.73Z"/><polygon class="cls-1" points="71.75 5.22 68.06 5.22 68.06 20.83 71.89 20.83 71.89 19.73 69.43 19.73 69.43 13.22 71.61 13.22 71.61 12.12 69.43 12.12 69.43 6.32 71.75 6.32 71.75 5.22"/><polygon class="cls-1" points="81.34 20.83 83.11 5.22 81.81 5.22 80.43 18.91 79.12 5.22 77.76 5.22 79.42 20.83 81.34 20.83"/><path class="cls-1" d="M92,15.42H90.39l.75-8.37L92,15.42Zm.15,1.1.53,4.31h1.36l-2-15.61H90.18L88.52,20.83h1.26l.45-4.31Z"/><polygon class="cls-1" points="105.49 20.83 105.49 5.22 104.2 5.22 104.2 17.62 102.33 5.22 100.37 5.22 100.37 20.83 101.65 20.83 101.65 7.89 103.62 20.83 105.49 20.83"/><path class="cls-1" d="M114.51,13.08v1.1h.84v5.45a1.22,1.22,0,0,1-.72.26c-.73,0-1-.37-1-1.36v-11c0-1,.24-1.36.87-1.36s.86.35.86,1.36V9.18h1.38V7.63c0-1.73-.72-2.57-2.24-2.57s-2.24.84-2.24,2.57V18.54c0,1.66.74,2.45,2.31,2.45a4.29,4.29,0,0,0,2.17-.58V13.08Z"/><polygon class="cls-1" points="127.21 5.22 123.52 5.22 123.52 20.83 127.35 20.83 127.35 19.73 124.89 19.73 124.89 13.22 127.07 13.22 127.07 12.12 124.89 12.12 124.89 6.32 127.21 6.32 127.21 5.22"/><polygon class="cls-1" points="137.43 20.83 137.43 19.73 135.19 19.73 135.19 5.22 133.81 5.22 133.81 20.83 137.43 20.83"/><polygon class="cls-1" points="144.97 20.83 144.97 5.22 143.59 5.22 143.59 20.83 144.97 20.83"/><path class="cls-1" d="M155.77,9.18V7.63c0-1.75-.7-2.57-2.15-2.57s-2.13.82-2.13,2.57V8.8a4.79,4.79,0,0,0,1,3l1.1,1.78a5.09,5.09,0,0,1,1.1,2.8v2.16c0,1-.24,1.35-.89,1.35s-.89-.35-.89-1.35v-2h-1.38v1.87c0,1.71.72,2.55,2.27,2.55s2.27-.84,2.27-2.55V16.38c0-1.1-.1-1.4-1-2.92L153.55,11a3.7,3.7,0,0,1-.68-2.2V7.51c0-1,.19-1.35.75-1.35s.77.35.77,1.35V9.17h1.38Z"/><path class="cls-1" d="M166.69,16.57h-1.38v2c0,1-.21,1.36-.77,1.36s-.75-.35-.75-1.36v-11c0-1,.21-1.36.75-1.36s.77.35.77,1.36V9.18h1.38V7.63c0-1.73-.7-2.57-2.15-2.57s-2.13.84-2.13,2.57V18.44c0,1.71.7,2.55,2.13,2.55s2.15-.84,2.15-2.55V16.57Z"/><polygon class="cls-1" points="177.87 20.83 177.87 5.22 176.49 5.22 176.49 12.24 174.71 12.24 174.71 5.22 173.33 5.22 173.33 20.83 174.71 20.83 174.71 13.34 176.49 13.34 176.49 20.83 177.87 20.83"/><polygon class="cls-1" points="188.34 5.22 184.65 5.22 184.65 20.83 188.48 20.83 188.48 19.73 186.03 19.73 186.03 13.22 188.2 13.22 188.2 12.12 186.03 12.12 186.03 6.32 188.34 6.32 188.34 5.22"/><path class="cls-1" d="M198.94,9.18V7.63c0-1.75-.71-2.57-2.15-2.57s-2.13.82-2.13,2.57V8.8a4.79,4.79,0,0,0,1,3l1.1,1.78a5.09,5.09,0,0,1,1.1,2.8v2.16c0,1-.24,1.35-.89,1.35s-.89-.35-.89-1.35v-2h-1.38v1.87c0,1.71.72,2.55,2.27,2.55s2.27-.84,2.27-2.55V16.38c0-1.1-.1-1.4-1-2.92L196.72,11A3.7,3.7,0,0,1,196,8.8V7.51c0-1,.19-1.35.75-1.35s.77.35.77,1.35V9.17h1.38Z"/><path class="cls-2" d="M41.81,5.25H26.17v16c8.83-1.12,15.64-7.86,15.64-16Z"/><path class="cls-2" d="M47.08,7.29C46,17.4,37.24,25.4,26.17,26.52V47.09H47.08V7.29Z"/><path class="cls-3" d="M20.92,21.23V0H5.27V5.25c0,8.12,6.81,14.86,15.65,16Z"/><path class="cls-2" d="M0,7.26V47.09H20.92V26.52C9.83,25.4,1,17.38,0,7.26Z"/></g></g></g></svg>